<mxfile host="app.diagrams.net" agent="Mozilla/5.0 (Windows NT 10.0; Win64; x64) AppleWebKit/537.36 (KHTML, like Gecko) Chrome/133.0.0.0 Safari/537.36" version="26.0.14" pages="2">
  <diagram name="Backlog" id="ibpSCjqeiJIwmJ1oxMrk">
    <mxGraphModel dx="956" dy="531" grid="1" gridSize="10" guides="1" tooltips="1" connect="1" arrows="1" fold="1" page="1" pageScale="1" pageWidth="827" pageHeight="1169" math="0" shadow="0">
      <root>
        <mxCell id="0" />
        <mxCell id="1" parent="0" />
        <mxCell id="7Kc3XWsI4NXQ4NdzzWup-1" value="&lt;h1 style=&quot;margin-top: 0px;&quot;&gt;Historia 1&lt;/h1&gt;&lt;p&gt;El usuario tiene que conectarse a la red.&lt;br&gt;&lt;/p&gt;" style="text;html=1;whiteSpace=wrap;overflow=hidden;rounded=0;spacingLeft=5;spacingTop=5;spacing=5;spacingBottom=5;spacingRight=5;fillColor=default;strokeColor=default;" parent="1" vertex="1">
          <mxGeometry x="40" y="157" width="180" height="120" as="geometry" />
        </mxCell>
        <mxCell id="7Kc3XWsI4NXQ4NdzzWup-7" value="" style="group" parent="1" connectable="0" vertex="1">
          <mxGeometry x="40" y="30" width="100" height="40" as="geometry" />
        </mxCell>
        <mxCell id="7Kc3XWsI4NXQ4NdzzWup-3" value="" style="verticalLabelPosition=bottom;shadow=0;dashed=0;align=center;html=1;verticalAlign=top;strokeWidth=1;shape=mxgraph.mockup.containers.userFemale;strokeColor=#666666;strokeColor2=#008cff;" parent="7Kc3XWsI4NXQ4NdzzWup-7" vertex="1">
          <mxGeometry width="40" height="40" as="geometry" />
        </mxCell>
        <mxCell id="7Kc3XWsI4NXQ4NdzzWup-4" value="&lt;div&gt;Cliente 1&lt;br&gt;&lt;/div&gt;" style="text;html=1;align=left;verticalAlign=middle;whiteSpace=wrap;rounded=0;" parent="7Kc3XWsI4NXQ4NdzzWup-7" vertex="1">
          <mxGeometry x="40" y="5" width="60" height="30" as="geometry" />
        </mxCell>
        <mxCell id="7Kc3XWsI4NXQ4NdzzWup-8" value="" style="group" parent="1" connectable="0" vertex="1">
          <mxGeometry x="40" y="90" width="100" height="40" as="geometry" />
        </mxCell>
        <mxCell id="7Kc3XWsI4NXQ4NdzzWup-2" value="" style="verticalLabelPosition=bottom;shadow=0;dashed=0;align=center;html=1;verticalAlign=top;strokeWidth=1;shape=mxgraph.mockup.containers.userMale;strokeColor=none;strokeColor2=#008cff;" parent="7Kc3XWsI4NXQ4NdzzWup-8" vertex="1">
          <mxGeometry width="40" height="40" as="geometry" />
        </mxCell>
        <mxCell id="7Kc3XWsI4NXQ4NdzzWup-5" value="&lt;div&gt;Cliente 2&lt;br&gt;&lt;/div&gt;" style="text;html=1;align=left;verticalAlign=middle;whiteSpace=wrap;rounded=0;" parent="7Kc3XWsI4NXQ4NdzzWup-8" vertex="1">
          <mxGeometry x="40" y="5" width="60" height="30" as="geometry" />
        </mxCell>
        <mxCell id="7Kc3XWsI4NXQ4NdzzWup-9" value="&lt;h1 style=&quot;margin-top: 0px;&quot;&gt;Historia 2&lt;br&gt;&lt;/h1&gt;&lt;p&gt;El usuario tiene que ver otros usuarios conectados.&lt;br&gt;&lt;/p&gt;" style="text;html=1;whiteSpace=wrap;overflow=hidden;rounded=0;spacingLeft=5;spacingTop=5;spacing=5;spacingBottom=5;spacingRight=5;fillColor=default;strokeColor=default;" parent="1" vertex="1">
          <mxGeometry x="40" y="290" width="180" height="120" as="geometry" />
        </mxCell>
        <mxCell id="o4K7ytaoeIAk3HAydhIs-1" value="&lt;h1 style=&quot;margin-top: 0px;&quot;&gt;Historia 3&lt;br&gt;&lt;/h1&gt;&lt;p&gt;El usuario tiene que poder enviar mensajes de texto al chat general.&lt;br&gt;&lt;/p&gt;" style="text;html=1;whiteSpace=wrap;overflow=hidden;rounded=0;spacingLeft=5;spacingTop=5;spacing=5;spacingBottom=5;spacingRight=5;fillColor=default;strokeColor=default;" vertex="1" parent="1">
          <mxGeometry x="40" y="420" width="180" height="120" as="geometry" />
        </mxCell>
        <mxCell id="o4K7ytaoeIAk3HAydhIs-2" value="&lt;h1 style=&quot;margin-top: 0px;&quot;&gt;Historia 4&lt;br&gt;&lt;/h1&gt;&lt;p&gt;El usuario tiene que poder ver los mensajes del chat general y quien los ha enviado.&lt;br&gt;&lt;/p&gt;" style="text;html=1;whiteSpace=wrap;overflow=hidden;rounded=0;spacingLeft=5;spacingTop=5;spacing=5;spacingBottom=5;spacingRight=5;fillColor=default;strokeColor=default;" vertex="1" parent="1">
          <mxGeometry x="240" y="157" width="180" height="120" as="geometry" />
        </mxCell>
        <mxCell id="o4K7ytaoeIAk3HAydhIs-3" value="&lt;h1 style=&quot;margin-top: 0px;&quot;&gt;Historia 5&lt;br&gt;&lt;/h1&gt;&lt;p&gt;El usuario tiene que poder realizar chats privados con cualquier usuario conectado.&lt;br&gt;&lt;/p&gt;" style="text;html=1;whiteSpace=wrap;overflow=hidden;rounded=0;spacingLeft=5;spacingTop=5;spacing=5;spacingBottom=5;spacingRight=5;fillColor=default;strokeColor=default;" vertex="1" parent="1">
          <mxGeometry x="240" y="290" width="180" height="120" as="geometry" />
        </mxCell>
        <mxCell id="o4K7ytaoeIAk3HAydhIs-4" value="&lt;h1 style=&quot;margin-top: 0px;&quot;&gt;Historia 6&lt;br&gt;&lt;/h1&gt;&lt;p&gt;El usuario tiene que poder realizar varios chats privados al mismo tiempo.&lt;br&gt;&lt;/p&gt;" style="text;html=1;whiteSpace=wrap;overflow=hidden;rounded=0;spacingLeft=5;spacingTop=5;spacing=5;spacingBottom=5;spacingRight=5;fillColor=default;strokeColor=default;" vertex="1" parent="1">
          <mxGeometry x="240" y="420" width="180" height="120" as="geometry" />
        </mxCell>
        <mxCell id="o4K7ytaoeIAk3HAydhIs-5" value="&lt;h1 style=&quot;margin-top: 0px;&quot;&gt;Historia 7&lt;br&gt;&lt;/h1&gt;&lt;p&gt;El usuario tiene que poder enviar ficheros en los chats privados.&lt;br&gt;&lt;/p&gt;" style="text;html=1;whiteSpace=wrap;overflow=hidden;rounded=0;spacingLeft=5;spacingTop=5;spacing=5;spacingBottom=5;spacingRight=5;fillColor=default;strokeColor=default;" vertex="1" parent="1">
          <mxGeometry x="440" y="157" width="180" height="120" as="geometry" />
        </mxCell>
      </root>
    </mxGraphModel>
  </diagram>
  <diagram id="dIf-6CehBCPpUC1TRIqf" name="Sprintlog">
    <mxGraphModel dx="1332" dy="468" grid="1" gridSize="10" guides="1" tooltips="1" connect="1" arrows="1" fold="1" page="1" pageScale="1" pageWidth="827" pageHeight="1169" math="0" shadow="0">
      <root>
        <mxCell id="0" />
        <mxCell id="1" parent="0" />
        <mxCell id="Iqgz6M43RzRNZjoqgLr8-1" value="" style="endArrow=none;html=1;rounded=0;" parent="1" edge="1">
          <mxGeometry width="50" height="50" relative="1" as="geometry">
            <mxPoint x="280" y="750" as="sourcePoint" />
            <mxPoint x="281" y="158" as="targetPoint" />
          </mxGeometry>
        </mxCell>
        <mxCell id="Iqgz6M43RzRNZjoqgLr8-2" value="" style="endArrow=none;html=1;rounded=0;" parent="1" edge="1">
          <mxGeometry width="50" height="50" relative="1" as="geometry">
            <mxPoint x="560" y="750" as="sourcePoint" />
            <mxPoint x="561" y="158" as="targetPoint" />
          </mxGeometry>
        </mxCell>
        <mxCell id="Iqgz6M43RzRNZjoqgLr8-3" value="PENDIENTE" style="text;html=1;align=center;verticalAlign=middle;whiteSpace=wrap;rounded=0;fontStyle=1" parent="1" vertex="1">
          <mxGeometry x="90" y="130" width="100" height="30" as="geometry" />
        </mxCell>
        <mxCell id="Iqgz6M43RzRNZjoqgLr8-4" value="HACIENDO" style="text;html=1;align=center;verticalAlign=middle;whiteSpace=wrap;rounded=0;fontStyle=1" parent="1" vertex="1">
          <mxGeometry x="370" y="130" width="100" height="30" as="geometry" />
        </mxCell>
        <mxCell id="Iqgz6M43RzRNZjoqgLr8-5" value="TERMINADO" style="text;html=1;align=center;verticalAlign=middle;whiteSpace=wrap;rounded=0;fontStyle=1" parent="1" vertex="1">
          <mxGeometry x="650" y="130" width="100" height="30" as="geometry" />
        </mxCell>
        <mxCell id="Iqgz6M43RzRNZjoqgLr8-7" value="&lt;div align=&quot;left&quot;&gt;&lt;ul&gt;&lt;li&gt;Programado&lt;/li&gt;&lt;li&gt;Documentado&lt;/li&gt;&lt;li&gt;Probado&lt;/li&gt;&lt;li&gt;Integrado&lt;/li&gt;&lt;/ul&gt;&lt;/div&gt;" style="shape=callout;whiteSpace=wrap;html=1;perimeter=calloutPerimeter;align=left;position2=0.36;" parent="1" vertex="1">
          <mxGeometry x="680" y="30" width="140" height="100" as="geometry" />
        </mxCell>
        <mxCell id="LBgsxKphkuaAK5QPwy_K-2" value="Miguel" style="text;html=1;align=left;verticalAlign=middle;whiteSpace=wrap;rounded=0;fillColor=#FFFF66;" parent="1" vertex="1">
          <mxGeometry x="30" y="20" width="90" height="30" as="geometry" />
        </mxCell>
        <mxCell id="LBgsxKphkuaAK5QPwy_K-3" value="Daniel" style="text;html=1;align=left;verticalAlign=middle;whiteSpace=wrap;rounded=0;fillColor=#FF99CC;" parent="1" vertex="1">
          <mxGeometry x="30" y="60" width="90" height="30" as="geometry" />
        </mxCell>
        <mxCell id="LBgsxKphkuaAK5QPwy_K-4" value="Ruben" style="text;html=1;align=left;verticalAlign=middle;whiteSpace=wrap;rounded=0;fillColor=#9999FF;" parent="1" vertex="1">
          <mxGeometry x="140" y="20" width="90" height="30" as="geometry" />
        </mxCell>
        <mxCell id="8auLFGelF9cu01JbPtdB-1" value="&lt;h1 style=&quot;margin-top: 0px;&quot;&gt;Historia 1&lt;/h1&gt;&lt;p&gt;El usuario tiene que conectarse a la red.&lt;br&gt;&lt;/p&gt;" style="text;html=1;whiteSpace=wrap;overflow=hidden;rounded=0;spacingLeft=5;spacingTop=5;spacing=5;spacingBottom=5;spacingRight=5;fillColor=default;strokeColor=default;" parent="1" vertex="1">
          <mxGeometry x="30" y="180" width="180" height="120" as="geometry" />
        </mxCell>
        <mxCell id="8auLFGelF9cu01JbPtdB-2" value="&lt;h1 style=&quot;margin-top: 0px;&quot;&gt;Historia 2&lt;br&gt;&lt;/h1&gt;&lt;p&gt;El usuario tiene que ver otros usuarios conectados.&lt;br&gt;&lt;/p&gt;" style="text;html=1;whiteSpace=wrap;overflow=hidden;rounded=0;spacingLeft=5;spacingTop=5;spacing=5;spacingBottom=5;spacingRight=5;fillColor=default;strokeColor=default;" parent="1" vertex="1">
          <mxGeometry x="30" y="313" width="180" height="120" as="geometry" />
        </mxCell>
        <mxCell id="B0foEyTpOdQiKhFUfSEQ-1" value="&lt;h1 style=&quot;margin-top: 0px;&quot;&gt;Tarea 1&lt;/h1&gt;&lt;div&gt;App java&lt;/div&gt;&lt;div&gt;-&amp;gt;Broadcast, puerto, &quot;Usuario1&quot;&lt;/div&gt;&lt;div&gt;App java&amp;nbsp;&lt;/div&gt;&lt;div&gt;-&amp;gt;escuche puerto, manda mensaje&lt;/div&gt;&lt;div&gt;&lt;br&gt;&lt;/div&gt;&lt;div&gt;&lt;span style=&quot;color: rgba(0, 0, 0, 0); font-family: monospace; font-size: 0px; text-wrap-mode: nowrap;&quot;&gt;%3CmxGraphModel%3E%3Croot%3E%3CmxCell%20id%3D%220%22%2F%3E%3CmxCell%20id%3D%221%22%20parent%3D%220%22%2F%3E%3CmxCell%20id%3D%222%22%20value%3D%22%26lt%3Bh1%20style%3D%26quot%3Bmargin-top%3A%200px%3B%26quot%3B%26gt%3BHistoria%201%26lt%3B%2Fh1%26gt%3B%26lt%3Bp%26gt%3BEl%20usuario%20tiene%20que%20conectarse%20a%20la%20red.%26lt%3Bbr%26gt%3B%26lt%3B%2Fp%26gt%3B%22%20style%3D%22text%3Bhtml%3D1%3BwhiteSpace%3Dwrap%3Boverflow%3Dhidden%3Brounded%3D0%3BspacingLeft%3D5%3BspacingTop%3D5%3Bspacing%3D5%3BspacingBottom%3D5%3BspacingRight%3D5%3BfillColor%3Ddefault%3BstrokeColor%3Ddefault%3B%22%20vertex%3D%221%22%20parent%3D%221%22%3E%3CmxGeometry%20x%3D%2230%22%20y%3D%22180%22%20width%3D%22180%22%20height%3D%22120%22%20as%3D%22geometry%22%2F%3E%3C%2FmxCell%3E%3C%2Froot%3E%3C%2FmxGraphModel%3E&lt;/span&gt;&lt;/div&gt;" style="text;html=1;whiteSpace=wrap;overflow=hidden;rounded=0;spacingLeft=5;spacingTop=5;spacing=5;spacingBottom=5;spacingRight=5;fillColor=#FFFF66;strokeColor=default;" parent="1" vertex="1">
          <mxGeometry x="319" y="180" width="190" height="160" as="geometry" />
        </mxCell>
        <mxCell id="B0foEyTpOdQiKhFUfSEQ-2" value="&lt;h1 style=&quot;margin-top: 0px;&quot;&gt;Tarea 2&lt;/h1&gt;&lt;div&gt;App javaFX&lt;/div&gt;&lt;div&gt;lea fichero config&lt;/div&gt;&lt;div&gt;mensaje puerto&lt;/div&gt;&lt;div&gt;probar css en javaFX&lt;/div&gt;&lt;div&gt;&lt;br&gt;&lt;/div&gt;&lt;div&gt;&lt;span style=&quot;color: rgba(0, 0, 0, 0); font-family: monospace; font-size: 0px; text-wrap-mode: nowrap;&quot;&gt;%3CmxGraphModel%3E%3Croot%3E%3CmxCell%20id%3D%220%22%2F%3E%3CmxCell%20id%3D%221%22%20parent%3D%220%22%2F%3E%3CmxCell%20id%3D%222%22%20value%3D%22%26lt%3Bh1%20style%3D%26quot%3Bmargin-top%3A%200px%3B%26quot%3B%26gt%3BHistoria%201%26lt%3B%2Fh1%26gt%3B%26lt%3Bp%26gt%3BEl%20usuario%20tiene%20que%20conectarse%20a%20la%20red.%26lt%3Bbr%26gt%3B%26lt%3B%2Fp%26gt%3B%22%20style%3D%22text%3Bhtml%3D1%3BwhiteSpace%3Dwrap%3Boverflow%3Dhidden%3Brounded%3D0%3BspacingLeft%3D5%3BspacingTop%3D5%3Bspacing%3D5%3BspacingBottom%3D5%3BspacingRight%3D5%3BfillColor%3Ddefault%3BstrokeColor%3Ddefault%3B%22%20vertex%3D%221%22%20parent%3D%221%22%3E%3CmxGeometry%20x%3D%2230%22%20y%3D%22180%22%20width%3D%22180%22%20height%3D%22120%22%20as%3D%22geometry%22%2F%3E%3C%2FmxCell%3E%3C%2Froot%3E%3C%2FmxGraphModel%3E&lt;/span&gt;&lt;/div&gt;" style="text;html=1;whiteSpace=wrap;overflow=hidden;rounded=0;spacingLeft=5;spacingTop=5;spacing=5;spacingBottom=5;spacingRight=5;fillColor=default;strokeColor=default;" parent="1" vertex="1">
          <mxGeometry x="319" y="360" width="190" height="160" as="geometry" />
        </mxCell>
      </root>
    </mxGraphModel>
  </diagram>
</mxfile>
